<?xml version="1.0" encoding="utf-8"?>
<!-- Generator: Adobe Illustrator 25.2.1, SVG Export Plug-In . SVG Version: 6.00 Build 0)  -->
<svg version="1.1" id="Layer_1" xmlns="http://www.w3.org/2000/svg" xmlns:xlink="http://www.w3.org/1999/xlink" x="0px" y="0px"
	 viewBox="0 0 446.79 431.59" style="enable-background:new 0 0 446.79 431.59;" xml:space="preserve">
<style type="text/css">
	.st0{fill:#040149;stroke:#FFFFFF;stroke-width:2;stroke-miterlimit:10;}
	.st1{fill:#D80039;stroke:#FFFFFF;stroke-width:4.1005;stroke-miterlimit:10;}
	.st2{fill:#FFFFFF;}
	.st3{fill:#040149;}
</style>
<g>
	<polygon class="st0" points="224.24,26.36 63.58,113.99 113.28,295.61 224.24,404.96 335.21,295.61 384.9,113.99 	"/>
	<polygon class="st1" points="417.7,328.18 29.09,328.18 45.25,286.17 29.09,244.16 417.7,244.16 401.54,286.17 	"/>
	<g>
		<g>
			<path class="st2" d="M72.77,304.61c0-12.05,0-24.1,0-36.14c5.3,0,7.95,0,13.25,0c0,2.03,0,3.05,0,5.09c-2.82,0-4.24,0-7.06,0
				c0,3.84,0,5.76,0,9.59c2.18,0,3.27,0,5.44,0c0,2.05,0,3.08,0,5.13c-2.18,0-3.27,0-5.44,0c0,4.53,0,6.8,0,11.33
				c2.85,0,4.28,0,7.13,0c0,2,0,3,0,5C80.76,304.61,78.1,304.61,72.77,304.61z"/>
			<path class="st2" d="M100.78,305.1c-2.3,0-4.09-0.47-5.37-1.41c-1.28-0.94-2.17-2.29-2.68-4.06c-0.51-1.77-0.77-3.92-0.77-6.45
				c0-9.89,0-14.83,0-24.72c2.45,0,3.67,0,6.12,0c0,10.3,0,15.45,0,25.75c0,0.89,0.06,1.77,0.17,2.63c0.11,0.86,0.36,1.56,0.75,2.1
				c0.39,0.54,0.98,0.8,1.78,0.8c0.83,0,1.43-0.27,1.82-0.8c0.39-0.53,0.63-1.23,0.73-2.1c0.1-0.86,0.15-1.74,0.15-2.63
				c0-10.3,0-15.45,0-25.75c2.45,0,3.67,0,6.12,0c0,9.89,0,14.83,0,24.72c0,2.53-0.26,4.68-0.77,6.45s-1.41,3.12-2.68,4.06
				C104.87,304.63,103.08,305.1,100.78,305.1z"/>
			<path class="st2" d="M116.92,304.61c0-12.05,0-24.1,0-36.14c3.15,0,4.73,0,7.89,0c2.05,0,3.81,0.28,5.28,0.83
				c1.46,0.55,2.59,1.53,3.38,2.92c0.79,1.4,1.18,3.33,1.18,5.8c0,1.49-0.11,2.8-0.32,3.95c-0.21,1.15-0.59,2.14-1.13,2.99
				c-0.54,0.85-1.3,1.52-2.27,2.03c1.68,7.05,2.52,10.58,4.21,17.63c-2.54,0-3.81,0-6.35,0c-1.4-6.55-2.1-9.83-3.49-16.38
				c-0.87,0-1.31,0-2.18,0c0,6.55,0,9.83,0,16.38C120.64,304.61,119.4,304.61,116.92,304.61z M123.12,283.86c0.72,0,1.08,0,1.8,0
				c1,0,1.79-0.19,2.37-0.58c0.58-0.39,0.98-0.97,1.22-1.76c0.24-0.79,0.36-1.76,0.36-2.92c0-1.67-0.26-2.94-0.77-3.81
				c-0.51-0.88-1.47-1.32-2.87-1.32c-0.84,0-1.26,0-2.1,0C123.12,277.62,123.12,279.7,123.12,283.86z"/>
			<path class="st2" d="M150.08,305.1c-2.23,0-3.99-0.48-5.29-1.43c-1.3-0.95-2.23-2.31-2.8-4.08c-0.56-1.77-0.84-3.89-0.84-6.36
				c0-5.39,0-8.09,0-13.48c0-2.47,0.28-4.58,0.84-6.34c0.56-1.75,1.5-3.09,2.8-4.02c1.3-0.92,3.07-1.38,5.29-1.38
				c2.25,0,4.04,0.47,5.35,1.4c1.31,0.94,2.25,2.28,2.82,4.02c0.56,1.74,0.84,3.84,0.84,6.31c0,5.39,0,8.09,0,13.48
				c0,2.47-0.28,4.59-0.84,6.36c-0.56,1.77-1.5,3.13-2.82,4.08C154.11,304.63,152.33,305.1,150.08,305.1z M150.08,299.79
				c0.8,0,1.39-0.22,1.76-0.65c0.38-0.43,0.63-1.01,0.75-1.74c0.12-0.73,0.19-1.51,0.19-2.34c0-6.84,0-10.25,0-17.09
				c0-0.83-0.06-1.61-0.19-2.32c-0.13-0.71-0.38-1.29-0.75-1.72c-0.38-0.43-0.96-0.65-1.76-0.65c-0.75,0-1.31,0.22-1.69,0.65
				c-0.38,0.43-0.63,1-0.75,1.72c-0.13,0.71-0.19,1.49-0.19,2.32c0,6.84,0,10.25,0,17.09c0,0.83,0.06,1.61,0.17,2.34
				c0.11,0.73,0.36,1.31,0.73,1.74C148.73,299.58,149.3,299.79,150.08,299.79z"/>
			<path class="st2" d="M166.22,304.61c0-12.05,0-24.1,0-36.14c3.86,0,5.79,0,9.65,0c1.83,0,3.32,0.41,4.47,1.23
				c1.15,0.82,2.01,2,2.57,3.55c0.56,1.55,0.84,3.42,0.84,5.62c0,2.59-0.37,4.61-1.11,6.07c-0.74,1.46-1.75,2.49-3.02,3.1
				c-1.28,0.61-2.74,0.91-4.39,0.91c-1.13,0-1.69,0-2.82,0c0,6.26,0,9.4,0,15.66C169.94,304.61,168.7,304.61,166.22,304.61z
				 M172.42,283.77c0.87,0,1.31,0,2.18,0c0.9,0,1.6-0.17,2.08-0.51c0.49-0.34,0.82-0.89,1-1.63c0.17-0.74,0.26-1.7,0.26-2.86
				c0-1.1-0.07-2.02-0.21-2.77c-0.14-0.74-0.44-1.32-0.92-1.74c-0.47-0.42-1.23-0.62-2.25-0.62c-0.86,0-1.28,0-2.14,0
				C172.42,277.7,172.42,279.72,172.42,283.77z"/>
			<path class="st2" d="M189.73,304.61c0-12.05,0-24.1,0-36.14c5.3,0,7.95,0,13.25,0c0,2.03,0,3.05,0,5.09c-2.82,0-4.24,0-7.06,0
				c0,3.84,0,5.76,0,9.59c2.18,0,3.27,0,5.44,0c0,2.05,0,3.08,0,5.13c-2.18,0-3.27,0-5.44,0c0,4.53,0,6.8,0,11.33
				c2.85,0,4.28,0,7.13,0c0,2,0,3,0,5C197.72,304.61,195.06,304.61,189.73,304.61z"/>
			<path class="st2" d="M216.42,305c-2.55,0-4.5-0.94-5.84-2.81s-2.09-4.44-2.25-7.69c1.51-0.49,2.27-0.73,3.78-1.22
				c0.27,5.17,1.71,7.76,4.31,7.76c1.09,0,1.92-0.36,2.48-1.08c0.57-0.72,0.85-1.78,0.85-3.17c0-0.77-0.08-1.47-0.23-2.11
				c-0.15-0.64-0.4-1.25-0.75-1.83c-0.35-0.58-0.68-1.06-0.99-1.45c-0.31-0.38-0.75-0.9-1.33-1.54c-2.04-2.15-3.06-3.23-5.1-5.38
				c-1.03-1.1-1.78-2.27-2.25-3.5s-0.71-2.73-0.71-4.5c0-2.61,0.64-4.65,1.92-6.11c1.28-1.46,3.03-2.2,5.23-2.23
				c2.43-0.04,4.25,0.7,5.46,2.23s1.94,3.9,2.18,7.11c-1.43,0.47-2.14,0.71-3.57,1.18c-0.05-0.78-0.12-1.48-0.2-2.09
				c-0.09-0.61-0.23-1.22-0.42-1.84c-0.2-0.62-0.43-1.12-0.71-1.5c-0.28-0.38-0.65-0.69-1.12-0.91c-0.46-0.23-1.01-0.32-1.61-0.27
				c-2.22,0.17-3.35,1.51-3.35,3.97c0,1.06,0.15,1.95,0.46,2.66c0.31,0.71,0.82,1.46,1.54,2.24c2.05,2.15,3.08,3.23,5.13,5.38
				c1.33,1.42,2.39,2.95,3.18,4.58c0.79,1.63,1.18,3.47,1.18,5.53c0,2.64-0.67,4.74-2.02,6.29C220.34,304.23,218.58,305,216.42,305z
				"/>
			<path class="st2" d="M230.04,304.61c0-12.04,0-24.08,0-36.12c3.01,0,4.52,0,7.54,0c2.64,0,4.55,0.85,5.74,2.54
				c1.18,1.69,1.78,4.17,1.78,7.44c0,2.93-0.64,5.22-1.92,6.86c-1.28,1.64-3.14,2.46-5.58,2.46c-1.33,0-1.99,0-3.32,0
				c0,6.73,0,10.09,0,16.82C232.58,304.61,231.73,304.61,230.04,304.61z M234.27,284.17c0.77,0,1.15,0,1.92,0
				c1.86,0,3.13-0.39,3.83-1.18c0.7-0.78,1.04-2.29,1.04-4.51c0-0.92-0.02-1.67-0.05-2.26c-0.04-0.59-0.12-1.14-0.25-1.67
				c-0.13-0.52-0.3-0.93-0.5-1.21c-0.21-0.28-0.5-0.53-0.87-0.73c-0.37-0.2-0.81-0.34-1.3-0.41c-0.49-0.07-1.11-0.11-1.84-0.11
				c-0.79,0-1.19,0-1.98,0C234.27,276.93,234.27,279.35,234.27,284.17z"/>
			<path class="st2" d="M251.06,304.61c0-12.04,0-24.08,0-36.12c4.71,0,7.06,0,11.77,0c0,1.49,0,2.24,0,3.73c-3.01,0-4.52,0-7.54,0
				c0,4.78,0,7.16,0,11.94c2.45,0,3.67,0,6.12,0c0,1.44,0,2.16,0,3.6c-2.45,0-3.67,0-6.12,0c0,5.3,0,7.95,0,13.25
				c3.05,0,4.58,0,7.63,0c0,1.45,0,2.17,0,3.62C258.18,304.61,255.81,304.61,251.06,304.61z"/>
			<path class="st2" d="M269.36,304.61c0-12.04,0-24.08,0-36.12c2.64,0,3.96,0,6.6,0c3.29,0,5.61,0.89,6.96,2.66
				c1.35,1.77,2.03,4.56,2.03,8.37c0,5.32,0,7.97,0,13.29c0,3.97-0.67,6.92-2.01,8.88c-1.34,1.95-3.56,2.93-6.66,2.93
				C273.51,304.61,272.12,304.61,269.36,304.61z M273.59,300.99c0.95,0,1.43,0,2.38,0c0.65,0,1.22-0.08,1.71-0.23
				s0.91-0.33,1.24-0.54c0.33-0.21,0.61-0.55,0.83-1.01c0.23-0.47,0.4-0.89,0.51-1.29c0.12-0.39,0.2-0.97,0.27-1.74
				c0.06-0.77,0.1-1.43,0.11-1.97s0.02-1.33,0.02-2.36c0-4.7,0-7.05,0-11.74c0-0.87-0.01-1.61-0.04-2.2
				c-0.02-0.59-0.07-1.19-0.15-1.79c-0.07-0.6-0.18-1.08-0.33-1.46c-0.15-0.38-0.34-0.74-0.57-1.08c-0.23-0.34-0.52-0.6-0.86-0.78
				c-0.34-0.18-0.75-0.32-1.21-0.43c-0.46-0.1-1.01-0.15-1.63-0.15c-0.92,0-1.38,0-2.29,0C273.59,281.81,273.59,291.4,273.59,300.99
				z"/>
			<path class="st2" d="M292.35,304.61c0-12.04,0-24.08,0-36.12c1.66,0,2.5,0,4.16,0c0,12.04,0,24.08,0,36.12
				C294.84,304.61,294.01,304.61,292.35,304.61z"/>
			<path class="st2" d="M307.56,304.61c0-10.8,0-21.6,0-32.4c-2.22,0-3.33,0-5.55,0c0-1.49,0-2.24,0-3.73c6.06,0,9.09,0,15.14,0
				c0,1.49,0,2.24,0,3.73c-2.14,0-3.21,0-5.35,0c0,10.8,0,21.6,0,32.4C310.1,304.61,309.25,304.61,307.56,304.61z"/>
			<path class="st2" d="M322.68,304.61c0-12.04,0-24.08,0-36.12c1.66,0,2.5,0,4.16,0c0,12.04,0,24.08,0,36.12
				C325.18,304.61,324.35,304.61,322.68,304.61z"/>
			<path class="st2" d="M342.52,305c-1.52,0-2.81-0.27-3.9-0.81c-1.08-0.54-1.94-1.33-2.58-2.37c-0.64-1.05-1.1-2.27-1.39-3.66
				s-0.44-3.02-0.44-4.88c0-5.47,0-8.21,0-13.68c0-3.76,0.64-6.61,1.93-8.55c1.29-1.94,3.41-2.91,6.37-2.91
				c2.95,0,5.07,0.98,6.36,2.93c1.3,1.95,1.94,4.8,1.94,8.53c0,5.48,0,8.22,0,13.7c0,3.76-0.65,6.65-1.95,8.67
				C347.57,303.99,345.45,305,342.52,305z M340.45,300.6c0.54,0.3,1.23,0.46,2.06,0.46c0.83,0,1.52-0.15,2.06-0.46
				c0.54-0.3,0.96-0.77,1.24-1.39c0.28-0.62,0.47-1.31,0.58-2.06c0.1-0.75,0.16-1.67,0.16-2.78c0-6.33,0-9.49,0-15.82
				c0-1.09-0.05-2-0.16-2.72c-0.1-0.73-0.3-1.39-0.58-2c-0.28-0.61-0.69-1.06-1.24-1.34c-0.54-0.28-1.23-0.43-2.06-0.43
				c-0.83,0-1.52,0.14-2.06,0.43c-0.54,0.28-0.96,0.73-1.24,1.34c-0.28,0.61-0.47,1.28-0.58,2c-0.1,0.73-0.16,1.63-0.16,2.72
				c0,6.33,0,9.49,0,15.82c0,1.1,0.05,2.03,0.16,2.78c0.1,0.75,0.3,1.44,0.58,2.06C339.5,299.83,339.91,300.3,340.45,300.6z"/>
			<path class="st2" d="M358.02,304.61c0-12.04,0-24.08,0-36.12c1.15,0,1.73,0,2.88,0c3.45,9.6,5.18,14.39,8.63,23.99
				c0-9.6,0-14.39,0-23.99c1.42,0,2.12,0,3.54,0c0,12.04,0,24.08,0,36.12c-1.09,0-1.63,0-2.71,0c-3.51-9.87-5.26-14.81-8.76-24.69
				c0,9.87,0,14.81,0,24.69C360.17,304.61,359.45,304.61,358.02,304.61z"/>
		</g>
	</g>
	<g>
		<g>
			<g>
				<path class="st3" d="M117.26,222.06c0.08,0.08,0.17,0.13,0.25,0.13L117.26,222.06z"/>
			</g>
			<g>
				<path class="st2" d="M347.22,132.08c0,0-0.73-5.01-0.51-5.15c0.22-0.15-0.58-17.49-0.58-17.49l-5.8-3.26
					c0,0-3.41-11.32-7.4-19.52l-2.97-0.44c0,0-2.03-13.5-8.27-18.36L213.09,57.11l-4.01,0.77l-46.53,0.53l-54.05,70.13l-0.53,65.21
					l4.6,0.01l-0.13,4.38l-0.11,1.56c-0.52,2.21-0.68,4.39-0.68,8.39c0,6.69,0.46,12.97,1.62,12.97c0.17,0,0.7-0.16,0.85-0.39
					l0.11,0.28l0.05,0.11l2.14-0.01c-0.11-0.11,1.02,2.28,0.92,2.03h2.63l0.41,0.81c0.13,0.3,0.1,0.67,0.25,0.72l0.72,0.58h0.87
					l5.39,0.02l1.92-2.63l0.59-3.32v-2.29l2.82,0.38l0.21,2.86l10.19-1.91l0.43,1.31l0.74,11.43l3.28,9.97l12.7,0.18
					c0,0,1.84-0.06,1.68-5.18l10.08,3.53h3.19l0.39,0.18c0.98,10.47,3.74,18.06,7,18.3l0,0.01h13.89c0,0,1.6-1.52,2.18-5.95l0,0
					h2.36l-0.14,0.84c-0.07,2.21-0.01,2.72-0.15,2.72h141.24l1.35-11.8v-27.47l-3.1-1.93l-0.77-11.22l-0.19-7.81l-0.29-2.54
					l5.57,0.19l0.14-23.31l-2.9-0.97l-1.25-25.91l6.43-0.52V132.08z"/>
			</g>
		</g>
		<g>
			<path class="st3" d="M166.59,197l-61.05-1.06l0.41-67.37l54.67-72.48h49.96v4.55h-44.12L166.59,197z M110.12,191.48l51.92,0.9
				l-0.13-130.45l-51.42,68.18L110.12,191.48z"/>
		</g>
		<g>
			
				<rect x="168.89" y="189.19" transform="matrix(0.0392 -0.9992 0.9992 0.0392 -31.9541 356.5934)" class="st3" width="1.14" height="11.45"/>
		</g>
		<g>
			<path class="st3" d="M148.35,242.06c-4.5,0-5.7-13.92-5.7-22.15c0-8.23,1.2-22.15,5.7-22.15c4.5,0,5.7,13.92,5.7,22.15
				C154.05,228.14,152.85,242.06,148.35,242.06z M148.34,199.98c-1.19,0.31-3.47,7.43-3.47,19.94s2.28,19.63,3.5,19.94
				c1.19-0.31,3.47-7.43,3.47-19.94S149.56,200.29,148.34,199.98z"/>
		</g>
		<g>
			<path class="st3" d="M113.47,221.29c-2.57,0-2.64-10.55-2.64-11.76c0-1.2,0.07-11.76,2.64-11.76s2.64,10.55,2.64,11.76
				C116.11,210.74,116.03,221.29,113.47,221.29z M113.42,198.86c-0.48,0.29-1.5,4.11-1.5,10.67c0,6.57,1.02,10.38,1.59,10.67
				c0.48-0.29,1.5-4.11,1.5-10.67C115.01,202.97,113.99,199.15,113.42,198.86z"/>
		</g>
		<g>
			<path class="st3" d="M117.37,223.35c-2.25,0-2.37-10.8-2.37-12.97s0.11-12.97,2.37-12.97c2.25,0,2.37,10.8,2.37,12.97
				S119.63,223.35,117.37,223.35z M117.37,198.65c-0.56,0.98-1.26,5.31-1.26,11.73s0.7,10.75,1.26,11.73
				c0.56-0.98,1.26-5.31,1.26-11.73C118.63,203.96,117.93,199.63,117.37,198.65z"/>
		</g>
		<g>
			<path class="st3" d="M121,225.69c-2.25,0-2.37-11.63-2.37-13.96s0.11-13.96,2.37-13.96s2.37,11.63,2.37,13.96
				S123.25,225.69,121,225.69z M121,199.04c-0.57,1.1-1.26,5.69-1.26,12.69c0,7,0.69,11.59,1.26,12.69
				c0.56-1.11,1.26-5.78,1.26-12.69C122.26,204.83,121.56,200.15,121,199.04z"/>
		</g>
		<g>
			<path class="st3" d="M182.72,259.94c-5.7,0-8.68-14.05-8.68-27.93s2.98-27.93,8.68-27.93s8.68,14.05,8.68,27.93
				S188.42,259.94,182.72,259.94z M182.72,206.35c-2.68,0-6.41,9.76-6.41,25.66s3.73,25.66,6.41,25.66c2.68,0,6.41-9.76,6.41-25.66
				S185.4,206.35,182.72,206.35z"/>
		</g>
		<g>
			<polygon class="st3" points="172.42,204.9 170.19,90.34 177.03,87.65 177.99,71.09 187.78,64.25 194.29,64.15 203.64,56.6 
				206.49,60.13 195.92,68.67 189.24,68.78 182.4,73.55 181.4,90.82 174.8,93.41 176.96,204.81 			"/>
		</g>
		<g>
			<path class="st3" d="M343.48,258.58L201,258.44l0-3.41c-0.96,0.05-1.52,0.73-1.61,1.22c0.37-1.96,0.13-25.4-0.1-39.71l3.41-0.06
				c0.41,24.92,0.37,34.62,0.13,38.55l137.6,0.14l1.17-10.19v-26.43l-3.09-1.93L338.45,191l4.5,0.2v-19l-2.84-0.95l-1.39-28.73
				l6.43-0.52l-1.68-34.8l-5.37-0.1l-6.69-17.64l-3.23-0.47l-0.19-1.25c-0.02-0.13-1.92-12.33-7.27-16.97L212.89,60.09l-3.77,0.73
				l-4.64,0.74l-0.54-3.37l4.58-0.73l4.2-0.81l109.33,10.84l0.39,0.3c5.6,4.36,8,14.6,8.69,18.19l2.75,0.4l6.58,17.36l6.26,0.11
				l2,41.28l-6.43,0.52l1.12,23.1l2.96,0.99v25.02l-4.5-0.2l0.04,20.16l3.1,1.94L345,245.27L343.48,258.58z"/>
		</g>
		<g>
			<path class="st3" d="M201.59,220.22l-12.72-2.94l-0.25-1.01c-3.76-15.02-6.24-15.67-6.34-15.69c-0.51,0.17-1.61,2.29-2.14,4.65
				l-0.3,1.33l-5.14,0v-3.41h2.46c0.68-2.29,2.22-5.94,5.1-5.98c2.45,0.02,5.49,2.02,9.42,17.26l10.69,2.47L201.59,220.22z"/>
		</g>
		<g>
			<path class="st3" d="M183.83,245.94l-1.12-0.19c3.47-20.21-0.93-28.82-0.97-28.9l1-0.54
				C182.93,216.67,187.38,225.28,183.83,245.94z"/>
		</g>
		<g>
			<path class="st3" d="M149,229.73l-0.74-0.09c1.96-15.43-0.53-22.01-0.56-22.07l0.69-0.27C148.5,207.56,150.99,214.07,149,229.73z
				"/>
		</g>
		<g>
			<path class="st3" d="M195.99,259.94h-13.42v-2.27h13c0.46-0.61,1.63-2.41,2.03-5.5l2.25,0.3c-0.55,4.17-2.38,6.62-2.98,7.14
				C196.63,259.82,196.32,259.94,195.99,259.94z"/>
		</g>
		<g>
			<path class="st3" d="M160.04,242.27c-0.01,0-0.02,0-0.03,0l-11.31-0.18l0.04-2.27l11.17,0.17c0.34-0.45,0.81-1.3,0.71-4.22
				l2.27-0.08c0.13,3.75-0.61,4.99-1.31,5.85C161.2,242.01,160.64,242.27,160.04,242.27z"/>
		</g>
		<g>
			<rect x="117.2" y="222.74" class="st3" width="2.73" height="0.58"/>
		</g>
		<g>
			<rect x="113.55" y="220.71" class="st3" width="2.73" height="0.58"/>
		</g>
		<g>
			<path class="st3" d="M127.38,225.86l-6.39-0.15l0.03-1.14l6.11,0.14c0.41-0.27,2.3-1.89,2.3-8.11h1.14
				c0,7.71-2.77,9.07-3.08,9.21L127.38,225.86z"/>
		</g>
		<g>
			<polygon class="st3" points="200.87,253.41 189.7,250.77 189.7,216.58 190.84,216.58 190.84,249.87 201.13,252.3 			"/>
		</g>
		<g>
			<polygon class="st3" points="212.1,89.33 331.36,99.58 335.58,139.55 333.54,140.5 214.87,132.9 212.07,130.34 			"/>
		</g>
		<g>
			
				<rect x="274.87" y="113.85" transform="matrix(0.0434 -0.9991 0.9991 0.0434 98.3894 436.4981)" class="st3" width="4.55" height="106.03"/>
		</g>
		<g>
			
				<rect x="275.74" y="135.23" transform="matrix(0.0238 -0.9997 0.9997 0.0238 85.7095 459.2575)" class="st3" width="4.55" height="101.02"/>
		</g>
		<g>
			
				<rect x="233.51" y="203.25" transform="matrix(1 -2.278640e-03 2.278640e-03 1 -0.4663 0.6381)" class="st3" width="92.55" height="3.41"/>
		</g>
		<g>
			<polygon class="st3" points="211.99,219.34 212.71,232.01 236.36,233.45 233.03,219.34 			"/>
		</g>
		<g>
			<polygon class="st3" points="325.32,221.08 321.64,231.62 338.62,231.62 339.09,219.7 			"/>
		</g>
		<g>
			<rect x="249.93" y="235.05" class="st3" width="61.09" height="3.41"/>
		</g>
		<g>
			<polygon class="st3" points="201.95,143.45 195.19,140.12 193.71,133.94 182.96,133.35 182.27,95.38 193.16,94.69 193.4,89 
				212.61,89.35 212.57,91.63 195.58,91.32 195.34,96.83 184.58,97.51 185.19,131.19 195.53,131.76 197.15,138.55 202.96,141.41 			
				"/>
		</g>
		<g>
			
				<rect x="174.68" y="172.33" transform="matrix(0.9995 -0.0329 0.0329 0.9995 -5.6209 6.2707)" class="st3" width="26.32" height="3.41"/>
		</g>
		<g>
			
				<rect x="175.72" y="162.94" transform="matrix(0.9992 -0.041 0.041 0.9992 -6.5953 7.8654)" class="st3" width="25.3" height="3.41"/>
		</g>
		<g>
			<rect x="175.18" y="182.51" class="st3" width="25.82" height="3.41"/>
		</g>
		<g>
			<polygon class="st3" points="200.91,196.11 188.39,195.45 183.49,185.28 186.56,183.8 190.59,192.15 201.09,192.7 			"/>
		</g>
		<g>
			<polygon class="st3" points="222.21,183.65 216.92,183.65 213.97,172 216.17,171.44 218.69,181.37 222.21,181.37 			"/>
		</g>
		<g>
			<polygon class="st3" points="338.37,186.94 334.31,186.94 334.31,185.35 337,185.42 338.09,175.93 339.7,176.21 			"/>
		</g>
		<g>
			<polygon class="st3" points="126.63,215.89 125.69,200.07 122.07,200.07 122.07,198.94 126.76,198.94 127.76,215.82 			"/>
		</g>
		<g>
			
				<rect x="130.22" y="199.35" transform="matrix(0.0935 -0.9956 0.9956 0.0935 -83.9949 314.1508)" class="st3" width="0.61" height="7.69"/>
		</g>
		<g>
			
				<rect x="130.23" y="204.31" transform="matrix(0.1052 -0.9945 0.9945 0.1052 -90.1982 316.0622)" class="st3" width="0.6" height="7.68"/>
		</g>
		<g>
			
				<rect x="130.3" y="209.57" transform="matrix(0.2066 -0.9784 0.9784 0.2066 -104.9629 296.9115)" class="st3" width="0.61" height="7.22"/>
		</g>
		<g>
			<polygon class="st3" points="132.5,220.57 132.5,217.53 126.61,215.9 126.77,215.32 133.11,217.07 133.11,219.84 143.15,217.96 
				143.26,218.55 			"/>
		</g>
		<g>
			<polygon class="st3" points="177.09,209.26 172.97,209.23 150.91,205.59 151.65,201.1 173.52,204.71 177.09,204.71 			"/>
		</g>
		<g>
			
				<rect x="160.6" y="200.12" transform="matrix(0.283 -0.9591 0.9591 0.283 -84.4789 304.1382)" class="st3" width="1.14" height="16.89"/>
		</g>
		<g>
			<polygon class="st3" points="172.55,220.99 169.1,219.88 169.45,218.79 171.41,219.43 171.41,211.98 172.55,211.98 			"/>
		</g>
		<g>
			<polygon class="st3" points="171.19,234.29 170.06,234.18 170.79,226.76 168.03,225.67 168.44,224.61 172.01,226.02 			"/>
		</g>
		<g>
			<polygon class="st3" points="175.18,240.93 171.73,240.88 152.13,231.88 152.63,230.78 172.11,239.73 175.18,239.73 			"/>
		</g>
		<g>
			<polygon class="st3" points="236.36,252.44 221.96,252.44 219.02,247.92 220.03,247.26 222.62,251.24 236.36,251.24 			"/>
		</g>
		<g>
			<polygon class="st3" points="333.07,250.92 322.76,250.92 322.76,249.71 332.47,249.71 334.94,246.4 335.9,247.12 			"/>
		</g>
		<g>
			<polygon class="st3" points="242.24,250.8 241.51,249.84 246.32,246.16 314.79,246.16 319.45,249.84 318.7,250.79 314.37,247.36 
				246.73,247.36 			"/>
		</g>
		<g>
			
				<rect x="224.85" y="144.29" transform="matrix(0.9705 -0.2412 0.2412 0.9705 -36.0327 59.8777)" class="st3" width="3.41" height="65.65"/>
		</g>
		<g>
			
				<rect x="299.51" y="177.41" transform="matrix(0.152 -0.9884 0.9884 0.152 102.5589 477.7667)" class="st3" width="60.42" height="3.41"/>
		</g>
		<g>
			
				<rect x="194.53" y="100.88" transform="matrix(0.9996 -0.0282 0.0282 0.9996 -3.1539 5.5473)" class="st3" width="1.14" height="27.44"/>
		</g>
		<g>
			
				<rect x="337.69" y="111.5" transform="matrix(0.9996 -0.0282 0.0282 0.9996 -3.399 9.5956)" class="st3" width="1.14" height="27.44"/>
		</g>
		<g>
			
				<rect x="233.46" y="57.73" transform="matrix(0.1068 -0.9943 0.9943 0.1068 129.8697 304.8324)" class="st3" width="2.27" height="44.8"/>
		</g>
		<g>
			
				<rect x="311.24" y="70.5" transform="matrix(0.0557 -0.9984 0.9984 0.0557 208.1093 394.0437)" class="st3" width="2.27" height="32.99"/>
		</g>
		<g>
			<polygon class="st3" points="107.17,160.31 126.34,157.62 107.94,163.63 			"/>
		</g>
		<g>
			<polygon class="st3" points="106.6,166.21 127.17,164.74 107.12,169.58 			"/>
		</g>
		<g>
			<polygon class="st3" points="106.96,172.28 133.8,172.4 107.16,175.68 			"/>
		</g>
		<g>
			<polygon class="st3" points="107.55,179.45 139.91,179.68 107.71,182.86 			"/>
		</g>
		<g>
			<polygon class="st3" points="108.53,185.24 148.05,187.91 108.45,188.65 			"/>
		</g>
		<g>
			<polygon class="st3" points="106.63,154.65 126.34,147.46 108.33,158.22 			"/>
		</g>
		<g>
			<polygon class="st3" points="106.11,149.16 132.66,133.68 108.32,152.44 			"/>
		</g>
		<g>
			<polygon class="st3" points="106.31,142.28 134.69,122.36 108.76,145.38 			"/>
		</g>
		<g>
			<polygon class="st3" points="106.71,136.09 137.44,103.78 109.68,138.68 			"/>
		</g>
		<g>
			<path class="st3" d="M126.34,156.35"/>
		</g>
		<g>
			<path class="st3" d="M102.52,159.72"/>
		</g>
		<g>
			<path class="st3" d="M126.94,166.36"/>
		</g>
		<g>
			<path class="st3" d="M103.77,168.26"/>
		</g>
		<g>
			<path class="st3" d="M102.64,150.67"/>
		</g>
		<g>
			<rect x="246.13" y="223.44" class="st3" width="14.9" height="3.41"/>
		</g>
		<g>
			<rect x="300.3" y="223.44" class="st3" width="14.9" height="3.41"/>
		</g>
		<g>
			<polygon class="st2" points="307.39,145.26 279.78,142.43 302.67,91.27 326.45,95.15 			"/>
		</g>
		<g>
			<polygon class="st2" points="270.54,142.4 258.87,142 281.33,91.27 291.42,92.51 			"/>
		</g>
		<g>
			
				<rect x="121.83" y="221.82" transform="matrix(0.9407 -0.3392 0.3392 0.9407 -67.8877 55.8756)" class="st3" width="8.11" height="0.61"/>
		</g>
		<g>
			
				<rect x="122.71" y="223.73" transform="matrix(0.9407 -0.3392 0.3392 0.9407 -68.5299 56.0191)" class="st3" width="6.52" height="0.61"/>
		</g>
		<g>
			
				<rect x="150.04" y="237.24" transform="matrix(0.9532 -0.3024 0.3024 0.9532 -64.5378 58.3176)" class="st3" width="12" height="0.61"/>
		</g>
		<g>
			
				<rect x="185.97" y="256.69" transform="matrix(0.9532 -0.3024 0.3024 0.9532 -68.7374 70.0948)" class="st3" width="12" height="0.61"/>
		</g>
		<g>
			
				<rect x="185.7" y="253.83" transform="matrix(0.9532 -0.3024 0.3024 0.9532 -67.8825 69.88)" class="st3" width="12" height="0.61"/>
		</g>
		<g>
			
				<rect x="186.54" y="251.42" transform="matrix(0.9407 -0.3392 0.3392 0.9407 -74.134 79.3421)" class="st3" width="6.68" height="0.61"/>
		</g>
		<g>
			
				<rect x="150.12" y="234.97" transform="matrix(0.9532 -0.3024 0.3024 0.9532 -63.9324 57.6794)" class="st3" width="8.31" height="0.61"/>
		</g>
		<g>
			
				<rect x="151.83" y="232.38" transform="matrix(0.9532 -0.3024 0.3024 0.9532 -63.183 57.3466)" class="st3" width="3.5" height="0.61"/>
		</g>
		<g>
			
				<rect x="122.13" y="220.13" transform="matrix(0.9483 -0.3173 0.3173 0.9483 -63.4367 51.3796)" class="st3" width="7.77" height="0.61"/>
		</g>
		<g>
			
				<rect x="122.09" y="218.06" transform="matrix(0.9421 -0.3354 0.3354 0.9421 -65.9279 54.9865)" class="st3" width="8.28" height="0.61"/>
		</g>
		<g>
			
				<rect x="122.18" y="216.47" transform="matrix(0.9483 -0.3173 0.3173 0.9483 -62.3239 50.8956)" class="st3" width="5.81" height="0.61"/>
		</g>
		<g>
			
				<rect x="122.63" y="214.35" transform="matrix(0.9483 -0.3173 0.3173 0.9483 -61.6603 50.7296)" class="st3" width="4.55" height="0.61"/>
		</g>
		<g>
			
				<rect x="122.26" y="212.13" transform="matrix(0.9483 -0.3173 0.3173 0.9483 -60.9591 50.5891)" class="st3" width="5.13" height="0.61"/>
		</g>
		<g>
			
				<rect x="122.26" y="210.08" transform="matrix(0.9483 -0.3173 0.3173 0.9483 -60.3075 50.483)" class="st3" width="5.13" height="0.61"/>
		</g>
		<g>
			
				<rect x="122.26" y="207.85" transform="matrix(0.9483 -0.3173 0.3173 0.9483 -59.6014 50.368)" class="st3" width="5.13" height="0.61"/>
		</g>
		<g>
			
				<rect x="122.07" y="205.68" transform="matrix(0.9483 -0.3173 0.3173 0.9483 -58.9219 50.1948)" class="st3" width="5.13" height="0.61"/>
		</g>
		<g>
			
				<rect x="122.03" y="203.35" transform="matrix(0.9483 -0.3173 0.3173 0.9483 -58.186 50.0632)" class="st3" width="5.13" height="0.61"/>
		</g>
		<g>
			
				<rect x="121.72" y="201.1" transform="matrix(0.9571 -0.2897 0.2897 0.9571 -53.0258 44.5771)" class="st3" width="4.67" height="0.61"/>
		</g>
	</g>
</g>
</svg>
